<mxfile host="Electron" modified="2023-11-20T12:04:32.910Z" agent="Mozilla/5.0 (Windows NT 10.0; Win64; x64) AppleWebKit/537.36 (KHTML, like Gecko) draw.io/22.0.3 Chrome/114.0.5735.289 Electron/25.8.4 Safari/537.36" etag="1SBQ0WItcnfnahTEtf6c" version="22.0.3" type="device">
  <diagram name="Page-1" id="du8BjS4u8ORjwt0cbdpd">
    <mxGraphModel dx="2495" dy="1558" grid="1" gridSize="10" guides="1" tooltips="1" connect="1" arrows="1" fold="1" page="0" pageScale="1" pageWidth="850" pageHeight="1100" math="0" shadow="0">
      <root>
        <mxCell id="0" />
        <mxCell id="1" parent="0" />
        <mxCell id="YHxxfq7AgbGPGGouqPUc-10" style="edgeStyle=orthogonalEdgeStyle;rounded=0;orthogonalLoop=1;jettySize=auto;html=1;exitX=0.5;exitY=1;exitDx=0;exitDy=0;" parent="1" source="8l0nPYRnNpKV_g8Y-mkg-20" edge="1">
          <mxGeometry relative="1" as="geometry">
            <mxPoint x="-495.14814814814827" y="189.8888888888889" as="targetPoint" />
          </mxGeometry>
        </mxCell>
        <mxCell id="8l0nPYRnNpKV_g8Y-mkg-20" value="&lt;div&gt;Book&lt;/div&gt;" style="shape=ext;margin=3;double=1;whiteSpace=wrap;html=1;align=center;" parent="1" vertex="1">
          <mxGeometry x="-560" y="140" width="130" height="50" as="geometry" />
        </mxCell>
        <mxCell id="8l0nPYRnNpKV_g8Y-mkg-22" value="Title" style="ellipse;whiteSpace=wrap;html=1;align=center;" parent="1" vertex="1">
          <mxGeometry x="-730" y="55" width="100" height="40" as="geometry" />
        </mxCell>
        <mxCell id="8l0nPYRnNpKV_g8Y-mkg-24" value="Release Date" style="ellipse;whiteSpace=wrap;html=1;align=center;" parent="1" vertex="1">
          <mxGeometry x="-730" y="145" width="100" height="40" as="geometry" />
        </mxCell>
        <mxCell id="8l0nPYRnNpKV_g8Y-mkg-25" value="Number of pages" style="ellipse;whiteSpace=wrap;html=1;align=center;" parent="1" vertex="1">
          <mxGeometry x="-730" y="195" width="100" height="40" as="geometry" />
        </mxCell>
        <mxCell id="8l0nPYRnNpKV_g8Y-mkg-27" value="Language" style="ellipse;whiteSpace=wrap;html=1;align=center;" parent="1" vertex="1">
          <mxGeometry x="-730" y="295" width="100" height="40" as="geometry" />
        </mxCell>
        <mxCell id="8l0nPYRnNpKV_g8Y-mkg-30" value="" style="line;strokeWidth=1;rotatable=0;dashed=0;labelPosition=right;align=left;verticalAlign=middle;spacingTop=0;spacingLeft=6;points=[];portConstraint=eastwest;" parent="1" vertex="1">
          <mxGeometry x="-650" y="20" height="10" as="geometry" />
        </mxCell>
        <mxCell id="8l0nPYRnNpKV_g8Y-mkg-37" value="Author" style="whiteSpace=wrap;html=1;align=center;" parent="1" vertex="1">
          <mxGeometry x="-410" y="-120" width="100" height="40" as="geometry" />
        </mxCell>
        <mxCell id="8l0nPYRnNpKV_g8Y-mkg-38" value="Author_Id" style="ellipse;whiteSpace=wrap;html=1;align=center;fontStyle=4;" parent="1" vertex="1">
          <mxGeometry x="-540" y="-100" width="100" height="40" as="geometry" />
        </mxCell>
        <mxCell id="8l0nPYRnNpKV_g8Y-mkg-39" value="&lt;div&gt;Name&lt;/div&gt;" style="ellipse;whiteSpace=wrap;html=1;align=center;" parent="1" vertex="1">
          <mxGeometry x="-310" y="-200" width="100" height="40" as="geometry" />
        </mxCell>
        <mxCell id="8l0nPYRnNpKV_g8Y-mkg-40" value="Date of birth" style="ellipse;whiteSpace=wrap;html=1;align=center;" parent="1" vertex="1">
          <mxGeometry x="-280" y="-150" width="100" height="40" as="geometry" />
        </mxCell>
        <mxCell id="8l0nPYRnNpKV_g8Y-mkg-41" value="" style="endArrow=none;html=1;rounded=0;exitX=0.96;exitY=0.496;exitDx=0;exitDy=0;exitPerimeter=0;entryX=0;entryY=0;entryDx=0;entryDy=0;" parent="1" target="8l0nPYRnNpKV_g8Y-mkg-20" edge="1">
          <mxGeometry relative="1" as="geometry">
            <mxPoint x="-644" y="24.839999999999918" as="sourcePoint" />
            <mxPoint x="-430" y="60" as="targetPoint" />
          </mxGeometry>
        </mxCell>
        <mxCell id="8l0nPYRnNpKV_g8Y-mkg-42" value="" style="endArrow=none;html=1;rounded=0;exitX=1;exitY=0.5;exitDx=0;exitDy=0;entryX=0;entryY=0.25;entryDx=0;entryDy=0;" parent="1" source="8l0nPYRnNpKV_g8Y-mkg-22" target="8l0nPYRnNpKV_g8Y-mkg-20" edge="1">
          <mxGeometry relative="1" as="geometry">
            <mxPoint x="-540" y="40" as="sourcePoint" />
            <mxPoint x="-380" y="40" as="targetPoint" />
          </mxGeometry>
        </mxCell>
        <mxCell id="8l0nPYRnNpKV_g8Y-mkg-43" value="" style="endArrow=none;html=1;rounded=0;exitX=1;exitY=0.5;exitDx=0;exitDy=0;entryX=0;entryY=0.5;entryDx=0;entryDy=0;" parent="1" source="U_dGzQw2c9p1lLObZwQu-5" target="8l0nPYRnNpKV_g8Y-mkg-20" edge="1">
          <mxGeometry relative="1" as="geometry">
            <mxPoint x="-630" y="120" as="sourcePoint" />
            <mxPoint x="-410" y="80" as="targetPoint" />
          </mxGeometry>
        </mxCell>
        <mxCell id="8l0nPYRnNpKV_g8Y-mkg-45" value="" style="endArrow=none;html=1;rounded=0;exitX=1;exitY=0.5;exitDx=0;exitDy=0;entryX=0;entryY=0.5;entryDx=0;entryDy=0;" parent="1" source="8l0nPYRnNpKV_g8Y-mkg-24" target="8l0nPYRnNpKV_g8Y-mkg-20" edge="1">
          <mxGeometry relative="1" as="geometry">
            <mxPoint x="-540" y="240" as="sourcePoint" />
            <mxPoint x="-380" y="240" as="targetPoint" />
          </mxGeometry>
        </mxCell>
        <mxCell id="8l0nPYRnNpKV_g8Y-mkg-46" value="" style="endArrow=none;html=1;rounded=0;exitX=1;exitY=0.5;exitDx=0;exitDy=0;entryX=0;entryY=0.5;entryDx=0;entryDy=0;" parent="1" source="8l0nPYRnNpKV_g8Y-mkg-25" target="8l0nPYRnNpKV_g8Y-mkg-20" edge="1">
          <mxGeometry relative="1" as="geometry">
            <mxPoint x="-470" y="110" as="sourcePoint" />
            <mxPoint x="-310" y="110" as="targetPoint" />
          </mxGeometry>
        </mxCell>
        <mxCell id="8l0nPYRnNpKV_g8Y-mkg-47" value="" style="endArrow=none;html=1;rounded=0;exitX=1;exitY=0.5;exitDx=0;exitDy=0;entryX=0;entryY=0.75;entryDx=0;entryDy=0;" parent="1" source="U_dGzQw2c9p1lLObZwQu-4" target="8l0nPYRnNpKV_g8Y-mkg-20" edge="1">
          <mxGeometry relative="1" as="geometry">
            <mxPoint x="-630" y="265" as="sourcePoint" />
            <mxPoint x="-450" y="239.63999999999996" as="targetPoint" />
          </mxGeometry>
        </mxCell>
        <mxCell id="8l0nPYRnNpKV_g8Y-mkg-48" value="" style="endArrow=none;html=1;rounded=0;exitX=1;exitY=0.5;exitDx=0;exitDy=0;entryX=0;entryY=1;entryDx=0;entryDy=0;" parent="1" source="8l0nPYRnNpKV_g8Y-mkg-27" target="8l0nPYRnNpKV_g8Y-mkg-20" edge="1">
          <mxGeometry relative="1" as="geometry">
            <mxPoint x="-470" y="110" as="sourcePoint" />
            <mxPoint x="-310" y="110" as="targetPoint" />
          </mxGeometry>
        </mxCell>
        <mxCell id="8l0nPYRnNpKV_g8Y-mkg-49" value="Nationality" style="ellipse;whiteSpace=wrap;html=1;align=center;" parent="1" vertex="1">
          <mxGeometry x="-540" y="-150" width="100" height="40" as="geometry" />
        </mxCell>
        <mxCell id="8l0nPYRnNpKV_g8Y-mkg-50" value="Short Biography" style="ellipse;whiteSpace=wrap;html=1;align=center;" parent="1" vertex="1">
          <mxGeometry x="-460" y="-200" width="100" height="40" as="geometry" />
        </mxCell>
        <mxCell id="8l0nPYRnNpKV_g8Y-mkg-52" value="" style="endArrow=none;html=1;rounded=0;exitX=0.5;exitY=1;exitDx=0;exitDy=0;entryX=0.25;entryY=0;entryDx=0;entryDy=0;" parent="1" source="8l0nPYRnNpKV_g8Y-mkg-50" target="8l0nPYRnNpKV_g8Y-mkg-37" edge="1">
          <mxGeometry relative="1" as="geometry">
            <mxPoint x="-420" y="-20" as="sourcePoint" />
            <mxPoint x="-260" y="-20" as="targetPoint" />
          </mxGeometry>
        </mxCell>
        <mxCell id="8l0nPYRnNpKV_g8Y-mkg-54" value="" style="endArrow=none;html=1;rounded=0;entryX=0;entryY=1;entryDx=0;entryDy=0;exitX=1;exitY=0.25;exitDx=0;exitDy=0;" parent="1" source="8l0nPYRnNpKV_g8Y-mkg-37" target="8l0nPYRnNpKV_g8Y-mkg-39" edge="1">
          <mxGeometry relative="1" as="geometry">
            <mxPoint x="-400" y="-40" as="sourcePoint" />
            <mxPoint x="-240" y="-40" as="targetPoint" />
          </mxGeometry>
        </mxCell>
        <mxCell id="8l0nPYRnNpKV_g8Y-mkg-55" value="" style="endArrow=none;html=1;rounded=0;entryX=0;entryY=0.5;entryDx=0;entryDy=0;exitX=1;exitY=0.75;exitDx=0;exitDy=0;" parent="1" source="8l0nPYRnNpKV_g8Y-mkg-37" target="8l0nPYRnNpKV_g8Y-mkg-40" edge="1">
          <mxGeometry relative="1" as="geometry">
            <mxPoint x="-420" y="-20" as="sourcePoint" />
            <mxPoint x="-260" y="-20" as="targetPoint" />
          </mxGeometry>
        </mxCell>
        <mxCell id="8l0nPYRnNpKV_g8Y-mkg-56" value="" style="endArrow=none;html=1;rounded=0;entryX=0;entryY=0.25;entryDx=0;entryDy=0;exitX=1;exitY=1;exitDx=0;exitDy=0;" parent="1" source="8l0nPYRnNpKV_g8Y-mkg-49" target="8l0nPYRnNpKV_g8Y-mkg-37" edge="1">
          <mxGeometry relative="1" as="geometry">
            <mxPoint x="-360" y="-85.71428571428572" as="sourcePoint" />
            <mxPoint x="-290" y="-20" as="targetPoint" />
          </mxGeometry>
        </mxCell>
        <mxCell id="8l0nPYRnNpKV_g8Y-mkg-57" value="" style="endArrow=none;html=1;rounded=0;exitX=1;exitY=0.5;exitDx=0;exitDy=0;entryX=0;entryY=0.75;entryDx=0;entryDy=0;" parent="1" source="8l0nPYRnNpKV_g8Y-mkg-38" target="8l0nPYRnNpKV_g8Y-mkg-37" edge="1">
          <mxGeometry relative="1" as="geometry">
            <mxPoint x="-510" y="-20" as="sourcePoint" />
            <mxPoint x="-350" y="-20" as="targetPoint" />
          </mxGeometry>
        </mxCell>
        <mxCell id="8l0nPYRnNpKV_g8Y-mkg-58" value="Written by" style="shape=rhombus;perimeter=rhombusPerimeter;whiteSpace=wrap;html=1;align=center;rotation=30;" parent="1" vertex="1">
          <mxGeometry x="-480" y="-5" width="120" height="60" as="geometry" />
        </mxCell>
        <mxCell id="8l0nPYRnNpKV_g8Y-mkg-59" value="" style="endArrow=none;html=1;rounded=0;exitX=0.5;exitY=1;exitDx=0;exitDy=0;entryX=0.5;entryY=0;entryDx=0;entryDy=0;" parent="1" source="8l0nPYRnNpKV_g8Y-mkg-37" target="8l0nPYRnNpKV_g8Y-mkg-58" edge="1">
          <mxGeometry relative="1" as="geometry">
            <mxPoint x="-470" y="10" as="sourcePoint" />
            <mxPoint x="-310" y="10" as="targetPoint" />
          </mxGeometry>
        </mxCell>
        <mxCell id="8l0nPYRnNpKV_g8Y-mkg-60" value="1" style="resizable=0;html=1;whiteSpace=wrap;align=right;verticalAlign=bottom;" parent="8l0nPYRnNpKV_g8Y-mkg-59" connectable="0" vertex="1">
          <mxGeometry x="1" relative="1" as="geometry">
            <mxPoint x="15" y="-49" as="offset" />
          </mxGeometry>
        </mxCell>
        <mxCell id="8l0nPYRnNpKV_g8Y-mkg-61" value="" style="endArrow=none;html=1;rounded=0;exitX=0.5;exitY=1;exitDx=0;exitDy=0;entryX=0.5;entryY=0;entryDx=0;entryDy=0;" parent="1" source="8l0nPYRnNpKV_g8Y-mkg-58" target="8l0nPYRnNpKV_g8Y-mkg-20" edge="1">
          <mxGeometry relative="1" as="geometry">
            <mxPoint x="-480" y="80" as="sourcePoint" />
            <mxPoint x="-320" y="80" as="targetPoint" />
          </mxGeometry>
        </mxCell>
        <mxCell id="8l0nPYRnNpKV_g8Y-mkg-62" value="N" style="resizable=0;html=1;whiteSpace=wrap;align=right;verticalAlign=bottom;" parent="8l0nPYRnNpKV_g8Y-mkg-61" connectable="0" vertex="1">
          <mxGeometry x="1" relative="1" as="geometry">
            <mxPoint x="-5" y="-10" as="offset" />
          </mxGeometry>
        </mxCell>
        <mxCell id="8l0nPYRnNpKV_g8Y-mkg-64" value="&lt;div&gt;Name&lt;/div&gt;" style="ellipse;whiteSpace=wrap;html=1;align=center;" parent="1" vertex="1">
          <mxGeometry x="520.29" y="-90" width="100" height="40" as="geometry" />
        </mxCell>
        <mxCell id="8l0nPYRnNpKV_g8Y-mkg-65" value="User_Id" style="ellipse;whiteSpace=wrap;html=1;align=center;fontStyle=4;" parent="1" vertex="1">
          <mxGeometry x="520.29" y="-140" width="100" height="40" as="geometry" />
        </mxCell>
        <mxCell id="8l0nPYRnNpKV_g8Y-mkg-67" value="pass(hashed)" style="ellipse;whiteSpace=wrap;html=1;align=center;" parent="1" vertex="1">
          <mxGeometry x="520.29" y="60" width="100" height="40" as="geometry" />
        </mxCell>
        <mxCell id="8l0nPYRnNpKV_g8Y-mkg-68" value="&lt;div&gt;username&lt;/div&gt;" style="ellipse;whiteSpace=wrap;html=1;align=center;" parent="1" vertex="1">
          <mxGeometry x="520.29" y="-40" width="100" height="40" as="geometry" />
        </mxCell>
        <mxCell id="8l0nPYRnNpKV_g8Y-mkg-69" value="Date of birth" style="ellipse;whiteSpace=wrap;html=1;align=center;" parent="1" vertex="1">
          <mxGeometry x="520.29" y="110" width="100" height="40" as="geometry" />
        </mxCell>
        <mxCell id="8l0nPYRnNpKV_g8Y-mkg-70" value="phone number" style="ellipse;whiteSpace=wrap;html=1;align=center;" parent="1" vertex="1">
          <mxGeometry x="520.29" y="160" width="100" height="40" as="geometry" />
        </mxCell>
        <mxCell id="8l0nPYRnNpKV_g8Y-mkg-72" value="email" style="ellipse;whiteSpace=wrap;html=1;align=center;" parent="1" vertex="1">
          <mxGeometry x="520.29" y="5" width="100" height="40" as="geometry" />
        </mxCell>
        <mxCell id="0TBgzeGMhBcWAKNBUG3o-8" value="Book_Id" style="ellipse;whiteSpace=wrap;html=1;align=center;fontStyle=4;" parent="1" vertex="1">
          <mxGeometry x="-730" y="-45" width="100" height="40" as="geometry" />
        </mxCell>
        <mxCell id="0TBgzeGMhBcWAKNBUG3o-10" value="&lt;div&gt;ISBN&lt;/div&gt;" style="ellipse;whiteSpace=wrap;html=1;align=center;" parent="1" vertex="1">
          <mxGeometry x="-730" y="5" width="100" height="40" as="geometry" />
        </mxCell>
        <mxCell id="3d1GkVv-6SLAGh3_zniQ-2" value="Subscription" style="whiteSpace=wrap;html=1;align=center;" parent="1" vertex="1">
          <mxGeometry x="70" y="-310" width="100" height="40" as="geometry" />
        </mxCell>
        <mxCell id="3d1GkVv-6SLAGh3_zniQ-3" value="Description" style="ellipse;whiteSpace=wrap;html=1;align=center;" parent="1" vertex="1">
          <mxGeometry x="-730" y="350" width="100" height="40" as="geometry" />
        </mxCell>
        <mxCell id="3d1GkVv-6SLAGh3_zniQ-5" value="User" style="shape=ext;margin=3;whiteSpace=wrap;html=1;align=center;rounded=0;" parent="1" vertex="1">
          <mxGeometry x="380" y="55" width="100" height="40" as="geometry" />
        </mxCell>
        <mxCell id="3d1GkVv-6SLAGh3_zniQ-6" value="Subscription_Id" style="ellipse;whiteSpace=wrap;html=1;align=center;fontStyle=4;" parent="1" vertex="1">
          <mxGeometry x="-140" y="-370" width="100" height="40" as="geometry" />
        </mxCell>
        <mxCell id="3d1GkVv-6SLAGh3_zniQ-7" value="SubscriptionType" style="ellipse;whiteSpace=wrap;html=1;align=center;" parent="1" vertex="1">
          <mxGeometry x="-30" y="-370" width="100" height="40" as="geometry" />
        </mxCell>
        <mxCell id="3d1GkVv-6SLAGh3_zniQ-10" value="Price" style="ellipse;whiteSpace=wrap;html=1;align=center;" parent="1" vertex="1">
          <mxGeometry x="180" y="-310" width="100" height="40" as="geometry" />
        </mxCell>
        <mxCell id="YHxxfq7AgbGPGGouqPUc-5" value="Photo Url" style="ellipse;whiteSpace=wrap;html=1;align=center;" parent="1" vertex="1">
          <mxGeometry x="-380" y="-230" width="100" height="40" as="geometry" />
        </mxCell>
        <mxCell id="YHxxfq7AgbGPGGouqPUc-8" value="" style="endArrow=none;html=1;rounded=0;exitX=0.5;exitY=0;exitDx=0;exitDy=0;entryX=0.5;entryY=1;entryDx=0;entryDy=0;" parent="1" source="8l0nPYRnNpKV_g8Y-mkg-37" target="YHxxfq7AgbGPGGouqPUc-5" edge="1">
          <mxGeometry relative="1" as="geometry">
            <mxPoint x="-390" y="-130" as="sourcePoint" />
            <mxPoint x="-230" y="-130" as="targetPoint" />
          </mxGeometry>
        </mxCell>
        <mxCell id="YHxxfq7AgbGPGGouqPUc-9" value="" style="endArrow=none;html=1;rounded=0;exitX=1;exitY=0;exitDx=0;exitDy=0;entryX=0.25;entryY=1;entryDx=0;entryDy=0;" parent="1" source="3d1GkVv-6SLAGh3_zniQ-3" target="8l0nPYRnNpKV_g8Y-mkg-20" edge="1">
          <mxGeometry relative="1" as="geometry">
            <mxPoint x="-540" y="260" as="sourcePoint" />
            <mxPoint x="-380" y="260" as="targetPoint" />
          </mxGeometry>
        </mxCell>
        <mxCell id="YHxxfq7AgbGPGGouqPUc-11" value="&lt;div&gt;Max &lt;br&gt;&lt;/div&gt;&lt;div&gt;Profiles&lt;/div&gt;" style="ellipse;whiteSpace=wrap;html=1;align=center;" parent="1" vertex="1">
          <mxGeometry x="255" y="-380" width="100" height="40" as="geometry" />
        </mxCell>
        <mxCell id="YHxxfq7AgbGPGGouqPUc-12" value="Subscription Plan" style="ellipse;whiteSpace=wrap;html=1;align=center;" parent="1" vertex="1">
          <mxGeometry x="20" y="-420" width="100" height="40" as="geometry" />
        </mxCell>
        <mxCell id="YHxxfq7AgbGPGGouqPUc-14" value="" style="endArrow=none;html=1;rounded=0;exitX=0.5;exitY=1;exitDx=0;exitDy=0;entryX=0;entryY=0.5;entryDx=0;entryDy=0;" parent="1" source="3d1GkVv-6SLAGh3_zniQ-6" target="3d1GkVv-6SLAGh3_zniQ-2" edge="1">
          <mxGeometry relative="1" as="geometry">
            <mxPoint x="-90" y="-310" as="sourcePoint" />
            <mxPoint x="70" y="-310" as="targetPoint" />
          </mxGeometry>
        </mxCell>
        <mxCell id="YHxxfq7AgbGPGGouqPUc-15" value="" style="endArrow=none;html=1;rounded=0;exitX=0.5;exitY=1;exitDx=0;exitDy=0;entryX=0;entryY=0.25;entryDx=0;entryDy=0;" parent="1" source="3d1GkVv-6SLAGh3_zniQ-7" target="3d1GkVv-6SLAGh3_zniQ-2" edge="1">
          <mxGeometry relative="1" as="geometry">
            <mxPoint x="-80" y="-290" as="sourcePoint" />
            <mxPoint x="80" y="-250" as="targetPoint" />
          </mxGeometry>
        </mxCell>
        <mxCell id="YHxxfq7AgbGPGGouqPUc-17" value="" style="endArrow=none;html=1;rounded=0;exitX=0.5;exitY=1;exitDx=0;exitDy=0;entryX=0.25;entryY=0;entryDx=0;entryDy=0;" parent="1" source="YHxxfq7AgbGPGGouqPUc-12" target="3d1GkVv-6SLAGh3_zniQ-2" edge="1">
          <mxGeometry relative="1" as="geometry">
            <mxPoint x="50" y="-170" as="sourcePoint" />
            <mxPoint x="210" y="-170" as="targetPoint" />
          </mxGeometry>
        </mxCell>
        <mxCell id="YHxxfq7AgbGPGGouqPUc-18" value="" style="endArrow=none;html=1;rounded=0;exitX=1;exitY=0;exitDx=0;exitDy=0;entryX=0.5;entryY=1;entryDx=0;entryDy=0;" parent="1" source="3d1GkVv-6SLAGh3_zniQ-2" target="YHxxfq7AgbGPGGouqPUc-11" edge="1">
          <mxGeometry relative="1" as="geometry">
            <mxPoint x="-10" y="-220" as="sourcePoint" />
            <mxPoint x="150" y="-220" as="targetPoint" />
          </mxGeometry>
        </mxCell>
        <mxCell id="YHxxfq7AgbGPGGouqPUc-20" value="" style="endArrow=none;html=1;rounded=0;exitX=1;exitY=0.5;exitDx=0;exitDy=0;entryX=0;entryY=0.5;entryDx=0;entryDy=0;" parent="1" source="3d1GkVv-6SLAGh3_zniQ-2" target="3d1GkVv-6SLAGh3_zniQ-10" edge="1">
          <mxGeometry relative="1" as="geometry">
            <mxPoint x="10" y="-240" as="sourcePoint" />
            <mxPoint x="170" y="-240" as="targetPoint" />
          </mxGeometry>
        </mxCell>
        <mxCell id="YHxxfq7AgbGPGGouqPUc-21" value="" style="endArrow=none;html=1;rounded=0;entryX=0;entryY=0.5;entryDx=0;entryDy=0;exitX=0.5;exitY=0;exitDx=0;exitDy=0;" parent="1" source="3d1GkVv-6SLAGh3_zniQ-5" target="8l0nPYRnNpKV_g8Y-mkg-65" edge="1">
          <mxGeometry relative="1" as="geometry">
            <mxPoint x="170.29000000000002" y="80" as="sourcePoint" />
            <mxPoint x="330.29" y="80" as="targetPoint" />
          </mxGeometry>
        </mxCell>
        <mxCell id="YHxxfq7AgbGPGGouqPUc-22" value="" style="endArrow=none;html=1;rounded=0;entryX=0;entryY=0.5;entryDx=0;entryDy=0;exitX=0.75;exitY=0;exitDx=0;exitDy=0;" parent="1" source="3d1GkVv-6SLAGh3_zniQ-5" target="8l0nPYRnNpKV_g8Y-mkg-64" edge="1">
          <mxGeometry relative="1" as="geometry">
            <mxPoint x="160.29000000000002" y="70" as="sourcePoint" />
            <mxPoint x="320.29" y="70" as="targetPoint" />
          </mxGeometry>
        </mxCell>
        <mxCell id="YHxxfq7AgbGPGGouqPUc-23" value="" style="endArrow=none;html=1;rounded=0;entryX=0;entryY=0.5;entryDx=0;entryDy=0;exitX=1;exitY=0;exitDx=0;exitDy=0;" parent="1" source="3d1GkVv-6SLAGh3_zniQ-5" target="8l0nPYRnNpKV_g8Y-mkg-68" edge="1">
          <mxGeometry relative="1" as="geometry">
            <mxPoint x="130.29000000000002" y="160" as="sourcePoint" />
            <mxPoint x="290.29" y="160" as="targetPoint" />
          </mxGeometry>
        </mxCell>
        <mxCell id="YHxxfq7AgbGPGGouqPUc-26" value="" style="endArrow=none;html=1;rounded=0;entryX=0;entryY=0.5;entryDx=0;entryDy=0;exitX=1;exitY=0.25;exitDx=0;exitDy=0;" parent="1" source="3d1GkVv-6SLAGh3_zniQ-5" target="8l0nPYRnNpKV_g8Y-mkg-72" edge="1">
          <mxGeometry relative="1" as="geometry">
            <mxPoint x="300.29" y="120" as="sourcePoint" />
            <mxPoint x="460.29" y="120" as="targetPoint" />
          </mxGeometry>
        </mxCell>
        <mxCell id="YHxxfq7AgbGPGGouqPUc-27" value="" style="endArrow=none;html=1;rounded=0;entryX=0;entryY=0.5;entryDx=0;entryDy=0;exitX=1;exitY=0.5;exitDx=0;exitDy=0;" parent="1" source="3d1GkVv-6SLAGh3_zniQ-5" target="8l0nPYRnNpKV_g8Y-mkg-67" edge="1">
          <mxGeometry relative="1" as="geometry">
            <mxPoint x="340.29" y="100" as="sourcePoint" />
            <mxPoint x="500.29" y="100" as="targetPoint" />
          </mxGeometry>
        </mxCell>
        <mxCell id="YHxxfq7AgbGPGGouqPUc-28" value="" style="endArrow=none;html=1;rounded=0;entryX=0;entryY=0.5;entryDx=0;entryDy=0;exitX=1;exitY=1;exitDx=0;exitDy=0;" parent="1" source="3d1GkVv-6SLAGh3_zniQ-5" target="8l0nPYRnNpKV_g8Y-mkg-69" edge="1">
          <mxGeometry relative="1" as="geometry">
            <mxPoint x="320.29" y="120" as="sourcePoint" />
            <mxPoint x="480.29" y="120" as="targetPoint" />
          </mxGeometry>
        </mxCell>
        <mxCell id="YHxxfq7AgbGPGGouqPUc-29" value="" style="endArrow=none;html=1;rounded=0;entryX=0;entryY=0.5;entryDx=0;entryDy=0;exitX=0.75;exitY=1;exitDx=0;exitDy=0;" parent="1" source="3d1GkVv-6SLAGh3_zniQ-5" target="8l0nPYRnNpKV_g8Y-mkg-70" edge="1">
          <mxGeometry relative="1" as="geometry">
            <mxPoint x="260.29" y="160" as="sourcePoint" />
            <mxPoint x="420.29" y="160" as="targetPoint" />
          </mxGeometry>
        </mxCell>
        <mxCell id="YHxxfq7AgbGPGGouqPUc-30" value="" style="endArrow=none;html=1;rounded=0;entryX=0;entryY=0.5;entryDx=0;entryDy=0;exitX=1;exitY=0.75;exitDx=0;exitDy=0;" parent="1" source="6ohAWVY9FmhWyBjxxl42-1" target="U_dGzQw2c9p1lLObZwQu-1" edge="1">
          <mxGeometry relative="1" as="geometry">
            <mxPoint x="260.29" y="190" as="sourcePoint" />
            <mxPoint x="520.29" y="230" as="targetPoint" />
          </mxGeometry>
        </mxCell>
        <mxCell id="YHxxfq7AgbGPGGouqPUc-32" value="" style="endArrow=none;html=1;rounded=0;entryX=0;entryY=0;entryDx=0;entryDy=0;exitX=0.75;exitY=1;exitDx=0;exitDy=0;" parent="1" source="6ohAWVY9FmhWyBjxxl42-1" target="3d1GkVv-6SLAGh3_zniQ-5" edge="1">
          <mxGeometry relative="1" as="geometry">
            <mxPoint x="250" y="-80" as="sourcePoint" />
            <mxPoint x="20" y="-50" as="targetPoint" />
          </mxGeometry>
        </mxCell>
        <mxCell id="YHxxfq7AgbGPGGouqPUc-33" value="N" style="resizable=0;html=1;whiteSpace=wrap;align=right;verticalAlign=bottom;" parent="YHxxfq7AgbGPGGouqPUc-32" connectable="0" vertex="1">
          <mxGeometry x="1" relative="1" as="geometry">
            <mxPoint x="-10" y="-35" as="offset" />
          </mxGeometry>
        </mxCell>
        <mxCell id="YHxxfq7AgbGPGGouqPUc-34" value="" style="endArrow=none;html=1;rounded=0;entryX=0.5;entryY=0;entryDx=0;entryDy=0;exitX=0.5;exitY=1;exitDx=0;exitDy=0;" parent="1" source="3d1GkVv-6SLAGh3_zniQ-2" target="6ohAWVY9FmhWyBjxxl42-1" edge="1">
          <mxGeometry relative="1" as="geometry">
            <mxPoint x="-130" y="-170" as="sourcePoint" />
            <mxPoint x="250" y="-140" as="targetPoint" />
          </mxGeometry>
        </mxCell>
        <mxCell id="YHxxfq7AgbGPGGouqPUc-35" value="1" style="resizable=0;html=1;whiteSpace=wrap;align=right;verticalAlign=bottom;" parent="YHxxfq7AgbGPGGouqPUc-34" connectable="0" vertex="1">
          <mxGeometry x="1" relative="1" as="geometry">
            <mxPoint x="-50" y="-100" as="offset" />
          </mxGeometry>
        </mxCell>
        <mxCell id="YHxxfq7AgbGPGGouqPUc-37" value="AudioTrack_Id" style="ellipse;whiteSpace=wrap;html=1;align=center;fontStyle=4;" parent="1" vertex="1">
          <mxGeometry x="-570" y="590" width="100" height="40" as="geometry" />
        </mxCell>
        <mxCell id="YHxxfq7AgbGPGGouqPUc-38" value="Narrator_Id" style="ellipse;whiteSpace=wrap;html=1;align=center;fontStyle=4;" parent="1" vertex="1">
          <mxGeometry x="-1020" y="700" width="100" height="40" as="geometry" />
        </mxCell>
        <mxCell id="YHxxfq7AgbGPGGouqPUc-39" value="Name" style="ellipse;whiteSpace=wrap;html=1;align=center;" parent="1" vertex="1">
          <mxGeometry x="-920" y="710" width="100" height="40" as="geometry" />
        </mxCell>
        <mxCell id="YHxxfq7AgbGPGGouqPUc-40" value="Gender" style="ellipse;whiteSpace=wrap;html=1;align=center;" parent="1" vertex="1">
          <mxGeometry x="-800" y="700" width="100" height="40" as="geometry" />
        </mxCell>
        <mxCell id="YHxxfq7AgbGPGGouqPUc-41" value="Nationality" style="ellipse;whiteSpace=wrap;html=1;align=center;" parent="1" vertex="1">
          <mxGeometry x="-980" y="750" width="100" height="40" as="geometry" />
        </mxCell>
        <mxCell id="YHxxfq7AgbGPGGouqPUc-44" value="Duration" style="ellipse;whiteSpace=wrap;html=1;align=center;" parent="1" vertex="1">
          <mxGeometry x="-180" y="700" width="100" height="40" as="geometry" />
        </mxCell>
        <mxCell id="YHxxfq7AgbGPGGouqPUc-45" value="FilePath" style="ellipse;whiteSpace=wrap;html=1;align=center;" parent="1" vertex="1">
          <mxGeometry x="-380" y="660" width="100" height="40" as="geometry" />
        </mxCell>
        <mxCell id="YHxxfq7AgbGPGGouqPUc-46" value="&lt;div&gt;UploadDate&lt;/div&gt;" style="ellipse;whiteSpace=wrap;html=1;align=center;" parent="1" vertex="1">
          <mxGeometry x="-270" y="670" width="100" height="40" as="geometry" />
        </mxCell>
        <mxCell id="YHxxfq7AgbGPGGouqPUc-48" value="" style="endArrow=none;html=1;rounded=0;entryX=0.5;entryY=0;entryDx=0;entryDy=0;exitX=1;exitY=1;exitDx=0;exitDy=0;" parent="1" target="pVYkEBXFkWvOPuzjIQNp-19" edge="1">
          <mxGeometry relative="1" as="geometry">
            <mxPoint x="-430" y="165" as="sourcePoint" />
            <mxPoint x="-390" y="275" as="targetPoint" />
          </mxGeometry>
        </mxCell>
        <mxCell id="YHxxfq7AgbGPGGouqPUc-49" value="1" style="resizable=0;html=1;whiteSpace=wrap;align=right;verticalAlign=bottom;" parent="YHxxfq7AgbGPGGouqPUc-48" connectable="0" vertex="1">
          <mxGeometry x="1" relative="1" as="geometry">
            <mxPoint x="-40" y="-25" as="offset" />
          </mxGeometry>
        </mxCell>
        <mxCell id="YHxxfq7AgbGPGGouqPUc-50" value="TrackLanguage" style="ellipse;whiteSpace=wrap;html=1;align=center;" parent="1" vertex="1">
          <mxGeometry x="-510" y="640" width="100" height="40" as="geometry" />
        </mxCell>
        <mxCell id="YHxxfq7AgbGPGGouqPUc-51" value="" style="endArrow=none;html=1;rounded=0;exitX=0.5;exitY=1;exitDx=0;exitDy=0;entryX=0.5;entryY=0;entryDx=0;entryDy=0;" parent="1" source="pVYkEBXFkWvOPuzjIQNp-19" target="DwskiafR0wtzwzSg-qoH-10" edge="1">
          <mxGeometry relative="1" as="geometry">
            <mxPoint x="-360" y="320" as="sourcePoint" />
            <mxPoint x="-440" y="410" as="targetPoint" />
          </mxGeometry>
        </mxCell>
        <mxCell id="YHxxfq7AgbGPGGouqPUc-52" value="N" style="resizable=0;html=1;whiteSpace=wrap;align=right;verticalAlign=bottom;" parent="YHxxfq7AgbGPGGouqPUc-51" connectable="0" vertex="1">
          <mxGeometry x="1" relative="1" as="geometry">
            <mxPoint x="-30" y="-30" as="offset" />
          </mxGeometry>
        </mxCell>
        <mxCell id="YHxxfq7AgbGPGGouqPUc-53" value="Bio" style="ellipse;whiteSpace=wrap;html=1;align=center;" parent="1" vertex="1">
          <mxGeometry x="-860" y="750" width="100" height="40" as="geometry" />
        </mxCell>
        <mxCell id="YHxxfq7AgbGPGGouqPUc-54" value="" style="endArrow=none;html=1;rounded=0;exitX=0;exitY=0.5;exitDx=0;exitDy=0;entryX=1;entryY=0.5;entryDx=0;entryDy=0;" parent="1" source="DwskiafR0wtzwzSg-qoH-10" target="YHxxfq7AgbGPGGouqPUc-56" edge="1">
          <mxGeometry relative="1" as="geometry">
            <mxPoint x="-440" y="440" as="sourcePoint" />
            <mxPoint x="30" y="310" as="targetPoint" />
          </mxGeometry>
        </mxCell>
        <mxCell id="YHxxfq7AgbGPGGouqPUc-55" value="N" style="resizable=0;html=1;whiteSpace=wrap;align=right;verticalAlign=bottom;" parent="YHxxfq7AgbGPGGouqPUc-54" connectable="0" vertex="1">
          <mxGeometry x="1" relative="1" as="geometry">
            <mxPoint x="250" y="-20" as="offset" />
          </mxGeometry>
        </mxCell>
        <mxCell id="YHxxfq7AgbGPGGouqPUc-56" value="Makes" style="shape=rhombus;perimeter=rhombusPerimeter;whiteSpace=wrap;html=1;align=center;" parent="1" vertex="1">
          <mxGeometry x="-770" y="510" width="120" height="60" as="geometry" />
        </mxCell>
        <mxCell id="YHxxfq7AgbGPGGouqPUc-57" value="" style="endArrow=none;html=1;rounded=0;exitX=0;exitY=1;exitDx=0;exitDy=0;entryX=0.5;entryY=0;entryDx=0;entryDy=0;" parent="1" source="YHxxfq7AgbGPGGouqPUc-56" target="DwskiafR0wtzwzSg-qoH-3" edge="1">
          <mxGeometry relative="1" as="geometry">
            <mxPoint x="110" y="350" as="sourcePoint" />
            <mxPoint x="-865" y="620" as="targetPoint" />
            <Array as="points">
              <mxPoint x="-860" y="610" />
            </Array>
          </mxGeometry>
        </mxCell>
        <mxCell id="YHxxfq7AgbGPGGouqPUc-58" value="1" style="resizable=0;html=1;whiteSpace=wrap;align=right;verticalAlign=bottom;" parent="YHxxfq7AgbGPGGouqPUc-57" connectable="0" vertex="1">
          <mxGeometry x="1" relative="1" as="geometry">
            <mxPoint x="20" y="-40" as="offset" />
          </mxGeometry>
        </mxCell>
        <mxCell id="YHxxfq7AgbGPGGouqPUc-59" value="RewiewText" style="ellipse;whiteSpace=wrap;html=1;align=center;" parent="1" vertex="1">
          <mxGeometry x="-170" y="105" width="100" height="40" as="geometry" />
        </mxCell>
        <mxCell id="YHxxfq7AgbGPGGouqPUc-60" value="Rewiew_Id" style="ellipse;whiteSpace=wrap;html=1;align=center;fontStyle=4;" parent="1" vertex="1">
          <mxGeometry x="-280" y="95" width="100" height="40" as="geometry" />
        </mxCell>
        <mxCell id="YHxxfq7AgbGPGGouqPUc-62" value="DateOfRewiew" style="ellipse;whiteSpace=wrap;html=1;align=center;" parent="1" vertex="1">
          <mxGeometry x="-100" y="145" width="100" height="40" as="geometry" />
        </mxCell>
        <mxCell id="DwskiafR0wtzwzSg-qoH-1" style="edgeStyle=orthogonalEdgeStyle;rounded=0;orthogonalLoop=1;jettySize=auto;html=1;exitX=0.5;exitY=1;exitDx=0;exitDy=0;" parent="1" source="YHxxfq7AgbGPGGouqPUc-5" target="YHxxfq7AgbGPGGouqPUc-5" edge="1">
          <mxGeometry relative="1" as="geometry" />
        </mxCell>
        <mxCell id="DwskiafR0wtzwzSg-qoH-3" value="&lt;div&gt;Narrator&lt;/div&gt;" style="whiteSpace=wrap;html=1;align=center;" parent="1" vertex="1">
          <mxGeometry x="-920" y="630" width="100" height="40" as="geometry" />
        </mxCell>
        <mxCell id="DwskiafR0wtzwzSg-qoH-4" value="" style="endArrow=none;html=1;rounded=0;exitX=0.5;exitY=0;exitDx=0;exitDy=0;entryX=0;entryY=1;entryDx=0;entryDy=0;" parent="1" source="YHxxfq7AgbGPGGouqPUc-38" target="DwskiafR0wtzwzSg-qoH-3" edge="1">
          <mxGeometry relative="1" as="geometry">
            <mxPoint x="-1080" y="620" as="sourcePoint" />
            <mxPoint x="-920" y="620" as="targetPoint" />
          </mxGeometry>
        </mxCell>
        <mxCell id="DwskiafR0wtzwzSg-qoH-6" value="" style="endArrow=none;html=1;rounded=0;entryX=0.25;entryY=1;entryDx=0;entryDy=0;exitX=0.5;exitY=0;exitDx=0;exitDy=0;" parent="1" source="YHxxfq7AgbGPGGouqPUc-41" target="DwskiafR0wtzwzSg-qoH-3" edge="1">
          <mxGeometry relative="1" as="geometry">
            <mxPoint x="-1060" y="610" as="sourcePoint" />
            <mxPoint x="-900" y="610" as="targetPoint" />
          </mxGeometry>
        </mxCell>
        <mxCell id="DwskiafR0wtzwzSg-qoH-7" value="" style="endArrow=none;html=1;rounded=0;entryX=0.5;entryY=1;entryDx=0;entryDy=0;exitX=0.5;exitY=0;exitDx=0;exitDy=0;" parent="1" source="YHxxfq7AgbGPGGouqPUc-39" target="DwskiafR0wtzwzSg-qoH-3" edge="1">
          <mxGeometry relative="1" as="geometry">
            <mxPoint x="-1090" y="600" as="sourcePoint" />
            <mxPoint x="-930" y="600" as="targetPoint" />
          </mxGeometry>
        </mxCell>
        <mxCell id="DwskiafR0wtzwzSg-qoH-8" value="" style="endArrow=none;html=1;rounded=0;exitX=0.75;exitY=1;exitDx=0;exitDy=0;entryX=0.5;entryY=0;entryDx=0;entryDy=0;" parent="1" source="DwskiafR0wtzwzSg-qoH-3" target="YHxxfq7AgbGPGGouqPUc-53" edge="1">
          <mxGeometry relative="1" as="geometry">
            <mxPoint x="-800" y="660" as="sourcePoint" />
            <mxPoint x="-640" y="660" as="targetPoint" />
          </mxGeometry>
        </mxCell>
        <mxCell id="DwskiafR0wtzwzSg-qoH-9" value="" style="endArrow=none;html=1;rounded=0;exitX=1;exitY=1;exitDx=0;exitDy=0;entryX=0;entryY=0;entryDx=0;entryDy=0;" parent="1" source="DwskiafR0wtzwzSg-qoH-3" target="YHxxfq7AgbGPGGouqPUc-40" edge="1">
          <mxGeometry relative="1" as="geometry">
            <mxPoint x="-740" y="650" as="sourcePoint" />
            <mxPoint x="-580" y="650" as="targetPoint" />
          </mxGeometry>
        </mxCell>
        <mxCell id="DwskiafR0wtzwzSg-qoH-10" value="AudioTrack" style="shape=ext;margin=3;double=1;whiteSpace=wrap;html=1;align=center;" parent="1" vertex="1">
          <mxGeometry x="-370" y="510" width="100" height="40" as="geometry" />
        </mxCell>
        <mxCell id="DwskiafR0wtzwzSg-qoH-11" value="" style="endArrow=none;html=1;rounded=0;exitX=0;exitY=0.75;exitDx=0;exitDy=0;entryX=0.5;entryY=0;entryDx=0;entryDy=0;" parent="1" source="DwskiafR0wtzwzSg-qoH-10" target="YHxxfq7AgbGPGGouqPUc-37" edge="1">
          <mxGeometry relative="1" as="geometry">
            <mxPoint x="-380" y="540" as="sourcePoint" />
            <mxPoint x="-560" y="610" as="targetPoint" />
          </mxGeometry>
        </mxCell>
        <mxCell id="DwskiafR0wtzwzSg-qoH-12" value="" style="endArrow=none;html=1;rounded=0;entryX=0.5;entryY=0;entryDx=0;entryDy=0;exitX=0;exitY=1;exitDx=0;exitDy=0;" parent="1" source="DwskiafR0wtzwzSg-qoH-10" target="YHxxfq7AgbGPGGouqPUc-50" edge="1">
          <mxGeometry relative="1" as="geometry">
            <mxPoint x="-370" y="550" as="sourcePoint" />
            <mxPoint x="-577.5" y="680" as="targetPoint" />
          </mxGeometry>
        </mxCell>
        <mxCell id="DwskiafR0wtzwzSg-qoH-13" value="" style="endArrow=none;html=1;rounded=0;exitX=0.5;exitY=1;exitDx=0;exitDy=0;entryX=0.5;entryY=0;entryDx=0;entryDy=0;" parent="1" source="DwskiafR0wtzwzSg-qoH-10" target="U_dGzQw2c9p1lLObZwQu-2" edge="1">
          <mxGeometry relative="1" as="geometry">
            <mxPoint x="-530" y="750" as="sourcePoint" />
            <mxPoint x="-450" y="610" as="targetPoint" />
          </mxGeometry>
        </mxCell>
        <mxCell id="DwskiafR0wtzwzSg-qoH-14" value="" style="endArrow=none;html=1;rounded=0;entryX=0.5;entryY=0;entryDx=0;entryDy=0;exitX=0.75;exitY=1;exitDx=0;exitDy=0;" parent="1" source="DwskiafR0wtzwzSg-qoH-10" target="U_dGzQw2c9p1lLObZwQu-3" edge="1">
          <mxGeometry relative="1" as="geometry">
            <mxPoint x="-310" y="580" as="sourcePoint" />
            <mxPoint x="-330" y="620" as="targetPoint" />
          </mxGeometry>
        </mxCell>
        <mxCell id="DwskiafR0wtzwzSg-qoH-15" value="" style="endArrow=none;html=1;rounded=0;exitX=0.5;exitY=1;exitDx=0;exitDy=0;entryX=0.5;entryY=0;entryDx=0;entryDy=0;" parent="1" source="DwskiafR0wtzwzSg-qoH-10" target="YHxxfq7AgbGPGGouqPUc-45" edge="1">
          <mxGeometry relative="1" as="geometry">
            <mxPoint x="-335.5999999999999" y="620.0000000000002" as="sourcePoint" />
            <mxPoint x="-440" y="795.52" as="targetPoint" />
          </mxGeometry>
        </mxCell>
        <mxCell id="DwskiafR0wtzwzSg-qoH-16" value="" style="endArrow=none;html=1;rounded=0;exitX=1;exitY=1;exitDx=0;exitDy=0;entryX=1;entryY=0;entryDx=0;entryDy=0;" parent="1" source="DwskiafR0wtzwzSg-qoH-10" target="YHxxfq7AgbGPGGouqPUc-46" edge="1">
          <mxGeometry relative="1" as="geometry">
            <mxPoint x="-500" y="750" as="sourcePoint" />
            <mxPoint x="-340" y="750" as="targetPoint" />
          </mxGeometry>
        </mxCell>
        <mxCell id="DwskiafR0wtzwzSg-qoH-17" value="" style="endArrow=none;html=1;rounded=0;exitX=1;exitY=0.5;exitDx=0;exitDy=0;entryX=0.5;entryY=0;entryDx=0;entryDy=0;" parent="1" source="DwskiafR0wtzwzSg-qoH-10" target="YHxxfq7AgbGPGGouqPUc-44" edge="1">
          <mxGeometry relative="1" as="geometry">
            <mxPoint x="-400" y="780" as="sourcePoint" />
            <mxPoint x="-240" y="780" as="targetPoint" />
          </mxGeometry>
        </mxCell>
        <mxCell id="DwskiafR0wtzwzSg-qoH-18" value="" style="endArrow=none;html=1;rounded=0;entryX=0;entryY=1;entryDx=0;entryDy=0;exitX=0.5;exitY=0;exitDx=0;exitDy=0;" parent="1" source="YHxxfq7AgbGPGGouqPUc-60" target="pVYkEBXFkWvOPuzjIQNp-29" edge="1">
          <mxGeometry relative="1" as="geometry">
            <mxPoint x="-380" y="15" as="sourcePoint" />
            <mxPoint x="-160" y="65.5" as="targetPoint" />
          </mxGeometry>
        </mxCell>
        <mxCell id="DwskiafR0wtzwzSg-qoH-19" value="" style="endArrow=none;html=1;rounded=0;exitX=0.25;exitY=1;exitDx=0;exitDy=0;entryX=0.5;entryY=0;entryDx=0;entryDy=0;" parent="1" source="pVYkEBXFkWvOPuzjIQNp-29" target="U_dGzQw2c9p1lLObZwQu-12" edge="1">
          <mxGeometry relative="1" as="geometry">
            <mxPoint x="-160" y="85.5" as="sourcePoint" />
            <mxPoint x="-190" y="145" as="targetPoint" />
          </mxGeometry>
        </mxCell>
        <mxCell id="DwskiafR0wtzwzSg-qoH-20" value="" style="endArrow=none;html=1;rounded=0;exitX=0.5;exitY=1;exitDx=0;exitDy=0;entryX=0.5;entryY=0;entryDx=0;entryDy=0;" parent="1" source="pVYkEBXFkWvOPuzjIQNp-29" target="YHxxfq7AgbGPGGouqPUc-59" edge="1">
          <mxGeometry relative="1" as="geometry">
            <mxPoint x="-110" y="85.5" as="sourcePoint" />
            <mxPoint x="-30" y="-55" as="targetPoint" />
          </mxGeometry>
        </mxCell>
        <mxCell id="DwskiafR0wtzwzSg-qoH-21" value="" style="endArrow=none;html=1;rounded=0;entryX=0.5;entryY=0;entryDx=0;entryDy=0;exitX=0.75;exitY=1;exitDx=0;exitDy=0;" parent="1" source="pVYkEBXFkWvOPuzjIQNp-29" target="YHxxfq7AgbGPGGouqPUc-62" edge="1">
          <mxGeometry relative="1" as="geometry">
            <mxPoint x="-85" y="85.5" as="sourcePoint" />
            <mxPoint x="-110" y="-5" as="targetPoint" />
          </mxGeometry>
        </mxCell>
        <mxCell id="DwskiafR0wtzwzSg-qoH-22" value="" style="endArrow=none;html=1;rounded=0;exitX=1;exitY=1;exitDx=0;exitDy=0;entryX=0;entryY=0;entryDx=0;entryDy=0;" parent="1" source="pVYkEBXFkWvOPuzjIQNp-29" target="U_dGzQw2c9p1lLObZwQu-13" edge="1">
          <mxGeometry relative="1" as="geometry">
            <mxPoint x="-60" y="85.5" as="sourcePoint" />
            <mxPoint x="24.64466094067211" y="142.32233047033628" as="targetPoint" />
          </mxGeometry>
        </mxCell>
        <mxCell id="DwskiafR0wtzwzSg-qoH-23" value="Stars" style="ellipse;whiteSpace=wrap;html=1;align=center;" parent="1" vertex="1">
          <mxGeometry x="20" y="85" width="100" height="40" as="geometry" />
        </mxCell>
        <mxCell id="pVYkEBXFkWvOPuzjIQNp-1" value="" style="endArrow=none;html=1;rounded=0;entryX=0;entryY=0.5;entryDx=0;entryDy=0;exitX=1;exitY=0.5;exitDx=0;exitDy=0;" parent="1" source="pVYkEBXFkWvOPuzjIQNp-29" target="DwskiafR0wtzwzSg-qoH-23" edge="1">
          <mxGeometry relative="1" as="geometry">
            <mxPoint x="-60" y="65.5" as="sourcePoint" />
            <mxPoint x="-90" y="-35" as="targetPoint" />
          </mxGeometry>
        </mxCell>
        <mxCell id="pVYkEBXFkWvOPuzjIQNp-10" value="CurrentTime" style="ellipse;whiteSpace=wrap;html=1;align=center;" parent="1" vertex="1">
          <mxGeometry x="130" y="460" width="100" height="40" as="geometry" />
        </mxCell>
        <mxCell id="pVYkEBXFkWvOPuzjIQNp-12" value="" style="endArrow=none;html=1;rounded=0;exitX=0.5;exitY=1;exitDx=0;exitDy=0;entryX=0.5;entryY=0;entryDx=0;entryDy=0;" parent="1" source="pVYkEBXFkWvOPuzjIQNp-23" target="U_dGzQw2c9p1lLObZwQu-7" edge="1">
          <mxGeometry relative="1" as="geometry">
            <mxPoint x="115.04000000000002" y="598.75" as="sourcePoint" />
            <mxPoint x="-9.999999999999545" y="470" as="targetPoint" />
          </mxGeometry>
        </mxCell>
        <mxCell id="pVYkEBXFkWvOPuzjIQNp-13" value="" style="endArrow=none;html=1;rounded=0;exitX=0.5;exitY=1;exitDx=0;exitDy=0;entryX=0.5;entryY=0;entryDx=0;entryDy=0;" parent="1" source="pVYkEBXFkWvOPuzjIQNp-23" target="U_dGzQw2c9p1lLObZwQu-8" edge="1">
          <mxGeometry relative="1" as="geometry">
            <mxPoint x="140.04000000000002" y="598.75" as="sourcePoint" />
            <mxPoint x="90" y="470" as="targetPoint" />
          </mxGeometry>
        </mxCell>
        <mxCell id="pVYkEBXFkWvOPuzjIQNp-15" value="" style="endArrow=none;html=1;rounded=0;exitX=0.75;exitY=1;exitDx=0;exitDy=0;entryX=0.5;entryY=0;entryDx=0;entryDy=0;" parent="1" source="pVYkEBXFkWvOPuzjIQNp-23" target="pVYkEBXFkWvOPuzjIQNp-10" edge="1">
          <mxGeometry relative="1" as="geometry">
            <mxPoint x="190.03999999999996" y="588.75" as="sourcePoint" />
            <mxPoint x="370.03999999999996" y="526.25" as="targetPoint" />
          </mxGeometry>
        </mxCell>
        <mxCell id="pVYkEBXFkWvOPuzjIQNp-18" style="edgeStyle=orthogonalEdgeStyle;rounded=0;orthogonalLoop=1;jettySize=auto;html=1;exitX=0;exitY=1;exitDx=0;exitDy=0;entryX=0;entryY=0.75;entryDx=0;entryDy=0;" parent="1" source="DwskiafR0wtzwzSg-qoH-10" target="DwskiafR0wtzwzSg-qoH-10" edge="1">
          <mxGeometry relative="1" as="geometry" />
        </mxCell>
        <mxCell id="pVYkEBXFkWvOPuzjIQNp-19" value="has" style="shape=rhombus;double=1;perimeter=rhombusPerimeter;whiteSpace=wrap;html=1;align=center;" parent="1" vertex="1">
          <mxGeometry x="-450" y="260" width="120" height="60" as="geometry" />
        </mxCell>
        <mxCell id="pVYkEBXFkWvOPuzjIQNp-23" value="Listen" style="shape=associativeEntity;whiteSpace=wrap;html=1;align=center;" parent="1" vertex="1">
          <mxGeometry x="-19.99999999999998" y="320" width="140" height="60" as="geometry" />
        </mxCell>
        <mxCell id="pVYkEBXFkWvOPuzjIQNp-24" value="" style="endArrow=none;html=1;rounded=0;dashed=1;dashPattern=1 2;exitX=0.75;exitY=0;exitDx=0;exitDy=0;entryX=0;entryY=0.5;entryDx=0;entryDy=0;" parent="1" source="pVYkEBXFkWvOPuzjIQNp-23" target="3d1GkVv-6SLAGh3_zniQ-5" edge="1">
          <mxGeometry relative="1" as="geometry">
            <mxPoint x="30" y="40" as="sourcePoint" />
            <mxPoint x="190" y="40" as="targetPoint" />
          </mxGeometry>
        </mxCell>
        <mxCell id="pVYkEBXFkWvOPuzjIQNp-25" value="M" style="resizable=0;html=1;whiteSpace=wrap;align=right;verticalAlign=bottom;" parent="pVYkEBXFkWvOPuzjIQNp-24" connectable="0" vertex="1">
          <mxGeometry x="1" relative="1" as="geometry">
            <mxPoint x="10" y="60" as="offset" />
          </mxGeometry>
        </mxCell>
        <mxCell id="pVYkEBXFkWvOPuzjIQNp-27" value="" style="endArrow=none;html=1;rounded=0;dashed=1;dashPattern=1 2;entryX=0;entryY=0.5;entryDx=0;entryDy=0;exitX=0.75;exitY=0;exitDx=0;exitDy=0;" parent="1" target="pVYkEBXFkWvOPuzjIQNp-23" edge="1">
          <mxGeometry relative="1" as="geometry">
            <mxPoint x="-295" y="505" as="sourcePoint" />
            <mxPoint x="-109.96000000000004" y="110" as="targetPoint" />
          </mxGeometry>
        </mxCell>
        <mxCell id="pVYkEBXFkWvOPuzjIQNp-28" value="N" style="resizable=0;html=1;whiteSpace=wrap;align=right;verticalAlign=bottom;" parent="pVYkEBXFkWvOPuzjIQNp-27" connectable="0" vertex="1">
          <mxGeometry x="1" relative="1" as="geometry">
            <mxPoint x="-250" y="130" as="offset" />
          </mxGeometry>
        </mxCell>
        <mxCell id="pVYkEBXFkWvOPuzjIQNp-29" value="Rewiew" style="shape=associativeEntity;whiteSpace=wrap;html=1;align=center;" parent="1" vertex="1">
          <mxGeometry x="-180" y="-15" width="140" height="60" as="geometry" />
        </mxCell>
        <mxCell id="pVYkEBXFkWvOPuzjIQNp-34" value="" style="endArrow=none;html=1;rounded=0;dashed=1;dashPattern=1 2;entryX=0;entryY=0.5;entryDx=0;entryDy=0;exitX=1;exitY=0.5;exitDx=0;exitDy=0;" parent="1" source="pVYkEBXFkWvOPuzjIQNp-29" target="3d1GkVv-6SLAGh3_zniQ-5" edge="1">
          <mxGeometry relative="1" as="geometry">
            <mxPoint x="-10" y="-10" as="sourcePoint" />
            <mxPoint x="150" y="-10" as="targetPoint" />
          </mxGeometry>
        </mxCell>
        <mxCell id="pVYkEBXFkWvOPuzjIQNp-35" value="N" style="resizable=0;html=1;whiteSpace=wrap;align=right;verticalAlign=bottom;" parent="pVYkEBXFkWvOPuzjIQNp-34" connectable="0" vertex="1">
          <mxGeometry x="1" relative="1" as="geometry">
            <mxPoint x="-590" y="100" as="offset" />
          </mxGeometry>
        </mxCell>
        <mxCell id="pVYkEBXFkWvOPuzjIQNp-36" value="" style="endArrow=none;html=1;rounded=0;dashed=1;dashPattern=1 2;entryX=0;entryY=0.5;entryDx=0;entryDy=0;exitX=1;exitY=0.25;exitDx=0;exitDy=0;" parent="1" source="8l0nPYRnNpKV_g8Y-mkg-20" target="pVYkEBXFkWvOPuzjIQNp-29" edge="1">
          <mxGeometry relative="1" as="geometry">
            <mxPoint x="-410" y="110" as="sourcePoint" />
            <mxPoint x="-240" y="80" as="targetPoint" />
          </mxGeometry>
        </mxCell>
        <mxCell id="pVYkEBXFkWvOPuzjIQNp-37" value="M" style="resizable=0;html=1;whiteSpace=wrap;align=right;verticalAlign=bottom;" parent="pVYkEBXFkWvOPuzjIQNp-36" connectable="0" vertex="1">
          <mxGeometry x="1" relative="1" as="geometry">
            <mxPoint x="290" y="-10" as="offset" />
          </mxGeometry>
        </mxCell>
        <mxCell id="U_dGzQw2c9p1lLObZwQu-1" value="&lt;span style=&quot;border-bottom: 1px dotted&quot;&gt;Subscription_Id&lt;/span&gt;" style="ellipse;whiteSpace=wrap;html=1;align=center;" parent="1" vertex="1">
          <mxGeometry x="360" y="-140" width="100" height="40" as="geometry" />
        </mxCell>
        <mxCell id="U_dGzQw2c9p1lLObZwQu-2" value="&lt;span style=&quot;border-bottom: 1px dotted&quot;&gt;Book_Id&lt;/span&gt;" style="ellipse;whiteSpace=wrap;html=1;align=center;" parent="1" vertex="1">
          <mxGeometry x="-420" y="610" width="100" height="40" as="geometry" />
        </mxCell>
        <mxCell id="U_dGzQw2c9p1lLObZwQu-3" value="&lt;span style=&quot;border-bottom: 1px dotted&quot;&gt;Narrator_Id&lt;/span&gt;" style="ellipse;whiteSpace=wrap;html=1;align=center;" parent="1" vertex="1">
          <mxGeometry x="-300" y="620" width="100" height="40" as="geometry" />
        </mxCell>
        <mxCell id="U_dGzQw2c9p1lLObZwQu-4" value="Category(genre)" style="ellipse;shape=doubleEllipse;margin=3;whiteSpace=wrap;html=1;align=center;" parent="1" vertex="1">
          <mxGeometry x="-740" y="250" width="110" height="40" as="geometry" />
        </mxCell>
        <mxCell id="U_dGzQw2c9p1lLObZwQu-5" value="&lt;span style=&quot;border-bottom: 1px dotted&quot;&gt;Author_Id&lt;/span&gt;" style="ellipse;whiteSpace=wrap;html=1;align=center;" parent="1" vertex="1">
          <mxGeometry x="-730" y="100" width="100" height="40" as="geometry" />
        </mxCell>
        <mxCell id="U_dGzQw2c9p1lLObZwQu-6" value="Listen_Id" style="ellipse;whiteSpace=wrap;html=1;align=center;fontStyle=4;" parent="1" vertex="1">
          <mxGeometry x="-170" y="470" width="100" height="40" as="geometry" />
        </mxCell>
        <mxCell id="U_dGzQw2c9p1lLObZwQu-7" value="&lt;span style=&quot;border-bottom: 1px dotted&quot;&gt;User_Id&lt;/span&gt;" style="ellipse;whiteSpace=wrap;html=1;align=center;" parent="1" vertex="1">
          <mxGeometry x="-70" y="470" width="100" height="40" as="geometry" />
        </mxCell>
        <mxCell id="U_dGzQw2c9p1lLObZwQu-8" value="&lt;span style=&quot;border-bottom: 1px dotted&quot;&gt;AudioTrack_Id&lt;/span&gt;" style="ellipse;whiteSpace=wrap;html=1;align=center;" parent="1" vertex="1">
          <mxGeometry x="30" y="470" width="100" height="40" as="geometry" />
        </mxCell>
        <mxCell id="U_dGzQw2c9p1lLObZwQu-9" value="" style="endArrow=none;html=1;rounded=0;exitX=0;exitY=1;exitDx=0;exitDy=0;entryX=0.5;entryY=0;entryDx=0;entryDy=0;" parent="1" source="pVYkEBXFkWvOPuzjIQNp-23" target="U_dGzQw2c9p1lLObZwQu-6" edge="1">
          <mxGeometry relative="1" as="geometry">
            <mxPoint x="-50" y="560" as="sourcePoint" />
            <mxPoint x="110" y="560" as="targetPoint" />
          </mxGeometry>
        </mxCell>
        <mxCell id="U_dGzQw2c9p1lLObZwQu-12" value="&lt;span style=&quot;border-bottom: 1px dotted&quot;&gt;User_Id&lt;/span&gt;" style="ellipse;whiteSpace=wrap;html=1;align=center;" parent="1" vertex="1">
          <mxGeometry x="-250" y="145" width="100" height="40" as="geometry" />
        </mxCell>
        <mxCell id="U_dGzQw2c9p1lLObZwQu-13" value="&lt;span style=&quot;border-bottom: 1px dotted&quot;&gt;Book_Id&lt;/span&gt;" style="ellipse;whiteSpace=wrap;html=1;align=center;" parent="1" vertex="1">
          <mxGeometry y="140" width="100" height="40" as="geometry" />
        </mxCell>
        <mxCell id="QzXPxBms6OL_lyheeY3o-1" value="SelectedOnDate" style="ellipse;whiteSpace=wrap;html=1;align=center;" parent="1" vertex="1">
          <mxGeometry x="220.29000000000002" y="440" width="100" height="40" as="geometry" />
        </mxCell>
        <mxCell id="QzXPxBms6OL_lyheeY3o-2" value="" style="endArrow=none;html=1;rounded=0;exitX=1;exitY=0.75;exitDx=0;exitDy=0;entryX=0;entryY=0;entryDx=0;entryDy=0;" parent="1" source="pVYkEBXFkWvOPuzjIQNp-23" target="QzXPxBms6OL_lyheeY3o-1" edge="1">
          <mxGeometry relative="1" as="geometry">
            <mxPoint x="-210" y="530" as="sourcePoint" />
            <mxPoint x="-50" y="530" as="targetPoint" />
          </mxGeometry>
        </mxCell>
        <mxCell id="QzXPxBms6OL_lyheeY3o-5" style="edgeStyle=orthogonalEdgeStyle;rounded=0;orthogonalLoop=1;jettySize=auto;html=1;exitX=1;exitY=1;exitDx=0;exitDy=0;entryX=0.5;entryY=1;entryDx=0;entryDy=0;" parent="1" source="pVYkEBXFkWvOPuzjIQNp-10" target="pVYkEBXFkWvOPuzjIQNp-10" edge="1">
          <mxGeometry relative="1" as="geometry" />
        </mxCell>
        <mxCell id="QzXPxBms6OL_lyheeY3o-6" value="NOTE:&lt;br&gt;This is the date when user &lt;br&gt;add something to &lt;br&gt;his list of audioTracks" style="ellipse;shape=cloud;whiteSpace=wrap;html=1;align=center;" parent="1" vertex="1">
          <mxGeometry x="350" y="430" width="260" height="140" as="geometry" />
        </mxCell>
        <mxCell id="QzXPxBms6OL_lyheeY3o-9" style="edgeStyle=orthogonalEdgeStyle;rounded=0;orthogonalLoop=1;jettySize=auto;html=1;entryX=0.4;entryY=0.1;entryDx=0;entryDy=0;entryPerimeter=0;" parent="1" source="QzXPxBms6OL_lyheeY3o-1" target="QzXPxBms6OL_lyheeY3o-6" edge="1">
          <mxGeometry relative="1" as="geometry" />
        </mxCell>
        <mxCell id="6ohAWVY9FmhWyBjxxl42-1" value="UserSubscription" style="shape=associativeEntity;whiteSpace=wrap;html=1;align=center;" vertex="1" parent="1">
          <mxGeometry x="170" y="-140" width="140" height="60" as="geometry" />
        </mxCell>
        <mxCell id="6ohAWVY9FmhWyBjxxl42-2" value="UserSubscription_Id" style="ellipse;whiteSpace=wrap;html=1;align=center;" vertex="1" parent="1">
          <mxGeometry x="355" y="-310" width="110" height="40" as="geometry" />
        </mxCell>
        <mxCell id="6ohAWVY9FmhWyBjxxl42-3" value="StartDate" style="ellipse;whiteSpace=wrap;html=1;align=center;" vertex="1" parent="1">
          <mxGeometry x="360" y="-270" width="100" height="40" as="geometry" />
        </mxCell>
        <mxCell id="6ohAWVY9FmhWyBjxxl42-5" value="&lt;span style=&quot;border-bottom: 1px dotted&quot;&gt;User_Id&lt;/span&gt;" style="ellipse;whiteSpace=wrap;html=1;align=center;" vertex="1" parent="1">
          <mxGeometry x="360" y="-180" width="100" height="40" as="geometry" />
        </mxCell>
        <mxCell id="6ohAWVY9FmhWyBjxxl42-6" value="" style="endArrow=none;html=1;rounded=0;entryX=0;entryY=0.5;entryDx=0;entryDy=0;exitX=0.75;exitY=0;exitDx=0;exitDy=0;" edge="1" parent="1" source="6ohAWVY9FmhWyBjxxl42-1" target="6ohAWVY9FmhWyBjxxl42-2">
          <mxGeometry relative="1" as="geometry">
            <mxPoint x="210" y="-240" as="sourcePoint" />
            <mxPoint x="370" y="-240" as="targetPoint" />
          </mxGeometry>
        </mxCell>
        <mxCell id="6ohAWVY9FmhWyBjxxl42-7" value="" style="endArrow=none;html=1;rounded=0;entryX=0;entryY=0.5;entryDx=0;entryDy=0;exitX=0.75;exitY=0;exitDx=0;exitDy=0;" edge="1" parent="1" source="6ohAWVY9FmhWyBjxxl42-1" target="6ohAWVY9FmhWyBjxxl42-3">
          <mxGeometry relative="1" as="geometry">
            <mxPoint x="160" y="-230" as="sourcePoint" />
            <mxPoint x="320" y="-230" as="targetPoint" />
          </mxGeometry>
        </mxCell>
        <mxCell id="6ohAWVY9FmhWyBjxxl42-8" value="" style="endArrow=none;html=1;rounded=0;exitX=1;exitY=0;exitDx=0;exitDy=0;entryX=0;entryY=0.5;entryDx=0;entryDy=0;" edge="1" parent="1" source="6ohAWVY9FmhWyBjxxl42-1">
          <mxGeometry relative="1" as="geometry">
            <mxPoint x="370" y="-410" as="sourcePoint" />
            <mxPoint x="360" y="-210" as="targetPoint" />
          </mxGeometry>
        </mxCell>
        <mxCell id="6ohAWVY9FmhWyBjxxl42-9" value="" style="endArrow=none;html=1;rounded=0;exitX=1;exitY=0.25;exitDx=0;exitDy=0;entryX=0;entryY=0.5;entryDx=0;entryDy=0;" edge="1" parent="1" source="6ohAWVY9FmhWyBjxxl42-1" target="6ohAWVY9FmhWyBjxxl42-5">
          <mxGeometry relative="1" as="geometry">
            <mxPoint x="480" y="-240" as="sourcePoint" />
            <mxPoint x="640" y="-240" as="targetPoint" />
          </mxGeometry>
        </mxCell>
        <mxCell id="6ohAWVY9FmhWyBjxxl42-10" value="SubscribtionMonths" style="ellipse;whiteSpace=wrap;html=1;align=center;" vertex="1" parent="1">
          <mxGeometry x="130" y="-410" width="135" height="40" as="geometry" />
        </mxCell>
        <mxCell id="6ohAWVY9FmhWyBjxxl42-11" value="EndDate" style="ellipse;whiteSpace=wrap;html=1;align=center;dashed=1;" vertex="1" parent="1">
          <mxGeometry x="360" y="-230" width="100" height="40" as="geometry" />
        </mxCell>
        <mxCell id="6ohAWVY9FmhWyBjxxl42-12" value="" style="endArrow=none;html=1;rounded=0;entryX=0.5;entryY=1;entryDx=0;entryDy=0;exitX=0.5;exitY=0;exitDx=0;exitDy=0;" edge="1" parent="1" source="3d1GkVv-6SLAGh3_zniQ-2" target="6ohAWVY9FmhWyBjxxl42-10">
          <mxGeometry relative="1" as="geometry">
            <mxPoint x="-70" y="-140" as="sourcePoint" />
            <mxPoint x="90" y="-140" as="targetPoint" />
          </mxGeometry>
        </mxCell>
      </root>
    </mxGraphModel>
  </diagram>
</mxfile>
